# xmcd
#
# Track frame offsets:
#	150
#	24555
#	37105
#	58157
#	88047
#	104860
#	120395
#	138520
#	153285
#	171917
#	188695
#	210687
#
# Disc length: 3054 seconds
#
# Revision: 1
# Processed by: cddbd v1.4PL0 Copyright (c) Steve Scherf et al.
# Submitted via: audiograbber 1.80
#
DISCID=aa0bec0c
DTITLE=Boogie Kings - Walkin' The Dog
DYEAR=1900
DGENRE=
TTITLE0=New Orleans Medley
TTITLE1=Walking the Dog
TTITLE2=Mustang Sally
TTITLE3=A Change is Gonna Come
TTITLE4=I'm Your Puppet
TTITLE5=Soul Man
TTITLE6=Two Steps from the Blues
TTITLE7=Mary Ann
TTITLE8=Out of Left Field
TTITLE9=I'll Take You There
TTITLE10=Rainbow
TTITLE11=You Got Me Hummin'
EXTD=
EXTT0=
EXTT1=
EXTT2=
EXTT3=
EXTT4=
EXTT5=
EXTT6=
EXTT7=
EXTT8=
EXTT9=
EXTT10=
EXTT11=
PLAYORDER=
